<mxfile host="app.diagrams.net" agent="Mozilla/5.0 (Windows NT 10.0; Win64; x64) AppleWebKit/537.36 (KHTML, like Gecko) Chrome/131.0.0.0 Safari/537.36" version="25.0.1">
  <diagram name="Page-1" id="2YBvvXClWsGukQMizWep">
    <mxGraphModel dx="1953" dy="594" grid="1" gridSize="10" guides="1" tooltips="1" connect="1" arrows="1" fold="1" page="1" pageScale="1" pageWidth="850" pageHeight="1100" math="0" shadow="0">
      <root>
        <mxCell id="0" />
        <mxCell id="1" parent="0" />
        <mxCell id="aM9ryv3xv72pqoxQDRHE-5" value="Sistema" style="shape=umlLifeline;perimeter=lifelinePerimeter;whiteSpace=wrap;html=1;container=0;dropTarget=0;collapsible=0;recursiveResize=0;outlineConnect=0;portConstraint=eastwest;newEdgeStyle={&quot;edgeStyle&quot;:&quot;elbowEdgeStyle&quot;,&quot;elbow&quot;:&quot;vertical&quot;,&quot;curved&quot;:0,&quot;rounded&quot;:0};" parent="1" vertex="1">
          <mxGeometry x="220" y="20" width="100" height="540" as="geometry" />
        </mxCell>
        <mxCell id="aM9ryv3xv72pqoxQDRHE-6" value="" style="html=1;points=[];perimeter=orthogonalPerimeter;outlineConnect=0;targetShapes=umlLifeline;portConstraint=eastwest;newEdgeStyle={&quot;edgeStyle&quot;:&quot;elbowEdgeStyle&quot;,&quot;elbow&quot;:&quot;vertical&quot;,&quot;curved&quot;:0,&quot;rounded&quot;:0};" parent="aM9ryv3xv72pqoxQDRHE-5" vertex="1">
          <mxGeometry x="45" y="80" width="10" height="70" as="geometry" />
        </mxCell>
        <mxCell id="7P23fWCcZTtkgC-bO-uN-14" value="" style="html=1;points=[];perimeter=orthogonalPerimeter;outlineConnect=0;targetShapes=umlLifeline;portConstraint=eastwest;newEdgeStyle={&quot;edgeStyle&quot;:&quot;elbowEdgeStyle&quot;,&quot;elbow&quot;:&quot;vertical&quot;,&quot;curved&quot;:0,&quot;rounded&quot;:0};" parent="aM9ryv3xv72pqoxQDRHE-5" vertex="1">
          <mxGeometry x="45" y="210" width="10" height="50" as="geometry" />
        </mxCell>
        <mxCell id="aM9ryv3xv72pqoxQDRHE-8" value="6. Produtos no carrinho" style="html=1;verticalAlign=bottom;endArrow=open;dashed=1;endSize=8;edgeStyle=elbowEdgeStyle;elbow=vertical;curved=0;rounded=0;" parent="1" edge="1">
          <mxGeometry relative="1" as="geometry">
            <mxPoint x="65.5" y="350" as="targetPoint" />
            <Array as="points">
              <mxPoint x="185.5" y="350" />
            </Array>
            <mxPoint x="265" y="350" as="sourcePoint" />
          </mxGeometry>
        </mxCell>
        <mxCell id="aM9ryv3xv72pqoxQDRHE-10" value="5. mostrarCarrinho()" style="html=1;verticalAlign=bottom;endArrow=open;endSize=8;edgeStyle=elbowEdgeStyle;elbow=vertical;curved=0;rounded=0;" parent="1" edge="1">
          <mxGeometry relative="1" as="geometry">
            <mxPoint x="265" y="320" as="targetPoint" />
            <Array as="points">
              <mxPoint x="175.5" y="320" />
            </Array>
            <mxPoint x="65.5" y="320" as="sourcePoint" />
          </mxGeometry>
        </mxCell>
        <mxCell id="7P23fWCcZTtkgC-bO-uN-1" value="UsuÃ¡rio&lt;div&gt;&lt;br&gt;&lt;/div&gt;" style="shape=umlActor;verticalLabelPosition=bottom;verticalAlign=top;html=1;outlineConnect=0;" parent="1" vertex="1">
          <mxGeometry x="50" y="20" width="30" height="60" as="geometry" />
        </mxCell>
        <mxCell id="7P23fWCcZTtkgC-bO-uN-5" value="" style="endArrow=none;dashed=1;html=1;rounded=0;" parent="1" edge="1">
          <mxGeometry width="50" height="50" relative="1" as="geometry">
            <mxPoint x="65" y="90" as="sourcePoint" />
            <mxPoint x="65" y="560" as="targetPoint" />
          </mxGeometry>
        </mxCell>
        <mxCell id="7P23fWCcZTtkgC-bO-uN-9" value="" style="html=1;points=[];perimeter=orthogonalPerimeter;outlineConnect=0;targetShapes=umlLifeline;portConstraint=eastwest;newEdgeStyle={&quot;edgeStyle&quot;:&quot;elbowEdgeStyle&quot;,&quot;elbow&quot;:&quot;vertical&quot;,&quot;curved&quot;:0,&quot;rounded&quot;:0};" parent="1" vertex="1">
          <mxGeometry x="265" y="300" width="10" height="70" as="geometry" />
        </mxCell>
        <mxCell id="7P23fWCcZTtkgC-bO-uN-13" value="1. listProdutos()" style="html=1;verticalAlign=bottom;endArrow=open;endSize=8;edgeStyle=elbowEdgeStyle;elbow=vertical;curved=0;rounded=0;" parent="1" edge="1">
          <mxGeometry x="0.0025" relative="1" as="geometry">
            <mxPoint x="265" y="130" as="targetPoint" />
            <Array as="points">
              <mxPoint x="175.5" y="130" />
            </Array>
            <mxPoint x="65.5" y="130" as="sourcePoint" />
            <mxPoint as="offset" />
          </mxGeometry>
        </mxCell>
        <mxCell id="aM9ryv3xv72pqoxQDRHE-9" value="2. Lista de produtos" style="html=1;verticalAlign=bottom;endArrow=open;edgeStyle=elbowEdgeStyle;elbow=vertical;curved=0;rounded=0;dashed=1;endFill=0;" parent="1" edge="1">
          <mxGeometry relative="1" as="geometry">
            <mxPoint x="265" y="160.20000000000005" as="sourcePoint" />
            <Array as="points">
              <mxPoint x="60" y="160" />
            </Array>
            <mxPoint x="70" y="160" as="targetPoint" />
          </mxGeometry>
        </mxCell>
        <mxCell id="7P23fWCcZTtkgC-bO-uN-24" value="3. adicionar ao carrinho(id_produto)" style="html=1;verticalAlign=bottom;endArrow=open;endSize=8;edgeStyle=elbowEdgeStyle;elbow=vertical;curved=0;rounded=0;" parent="1" edge="1">
          <mxGeometry relative="1" as="geometry">
            <mxPoint x="265" y="240" as="targetPoint" />
            <Array as="points">
              <mxPoint x="175.5" y="240" />
            </Array>
            <mxPoint x="65.5" y="240" as="sourcePoint" />
          </mxGeometry>
        </mxCell>
        <mxCell id="7P23fWCcZTtkgC-bO-uN-25" value="4. Mensagem de sucesso" style="html=1;verticalAlign=bottom;endArrow=open;dashed=1;endSize=8;edgeStyle=elbowEdgeStyle;elbow=vertical;curved=0;rounded=0;" parent="1" edge="1">
          <mxGeometry relative="1" as="geometry">
            <mxPoint x="65.5" y="270" as="targetPoint" />
            <Array as="points">
              <mxPoint x="185.5" y="270" />
            </Array>
            <mxPoint x="265" y="270" as="sourcePoint" />
          </mxGeometry>
        </mxCell>
        <mxCell id="7P23fWCcZTtkgC-bO-uN-35" value="" style="swimlane;startSize=0;" parent="1" vertex="1">
          <mxGeometry x="10" y="372" width="310" height="90" as="geometry" />
        </mxCell>
        <mxCell id="7P23fWCcZTtkgC-bO-uN-36" value="opt" style="text;html=1;align=center;verticalAlign=middle;resizable=0;points=[];autosize=1;perimeterSpacing=1;fillColor=#f5f5f5;fontColor=#333333;strokeColor=#666666;" parent="7P23fWCcZTtkgC-bO-uN-35" vertex="1">
          <mxGeometry x="5" width="40" height="30" as="geometry" />
        </mxCell>
        <mxCell id="7P23fWCcZTtkgC-bO-uN-30" value="" style="html=1;points=[];perimeter=orthogonalPerimeter;outlineConnect=0;targetShapes=umlLifeline;portConstraint=eastwest;newEdgeStyle={&quot;edgeStyle&quot;:&quot;elbowEdgeStyle&quot;,&quot;elbow&quot;:&quot;vertical&quot;,&quot;curved&quot;:0,&quot;rounded&quot;:0};" parent="7P23fWCcZTtkgC-bO-uN-35" vertex="1">
          <mxGeometry x="255" y="20" width="10" height="60" as="geometry" />
        </mxCell>
        <mxCell id="7P23fWCcZTtkgC-bO-uN-29" value="7. removerProduto(id_produto)" style="html=1;verticalAlign=bottom;endArrow=open;endSize=8;edgeStyle=elbowEdgeStyle;elbow=vertical;curved=0;rounded=0;" parent="7P23fWCcZTtkgC-bO-uN-35" edge="1">
          <mxGeometry relative="1" as="geometry">
            <mxPoint x="255" y="38" as="targetPoint" />
            <Array as="points">
              <mxPoint x="165.5" y="38" />
            </Array>
            <mxPoint x="55.5" y="38" as="sourcePoint" />
          </mxGeometry>
        </mxCell>
        <mxCell id="7P23fWCcZTtkgC-bO-uN-31" value="8. Mensagem de sucesso" style="html=1;verticalAlign=bottom;endArrow=open;dashed=1;endSize=8;edgeStyle=elbowEdgeStyle;elbow=vertical;curved=0;rounded=0;" parent="7P23fWCcZTtkgC-bO-uN-35" edge="1">
          <mxGeometry relative="1" as="geometry">
            <mxPoint x="55.5" y="68" as="targetPoint" />
            <Array as="points">
              <mxPoint x="175.5" y="68" />
            </Array>
            <mxPoint x="255" y="68" as="sourcePoint" />
          </mxGeometry>
        </mxCell>
        <mxCell id="7P23fWCcZTtkgC-bO-uN-45" value="Sistema" style="shape=umlLifeline;perimeter=lifelinePerimeter;whiteSpace=wrap;html=1;container=0;dropTarget=0;collapsible=0;recursiveResize=0;outlineConnect=0;portConstraint=eastwest;newEdgeStyle={&quot;edgeStyle&quot;:&quot;elbowEdgeStyle&quot;,&quot;elbow&quot;:&quot;vertical&quot;,&quot;curved&quot;:0,&quot;rounded&quot;:0};" parent="1" vertex="1">
          <mxGeometry x="620" y="18" width="100" height="212" as="geometry" />
        </mxCell>
        <mxCell id="7P23fWCcZTtkgC-bO-uN-46" value="" style="html=1;points=[];perimeter=orthogonalPerimeter;outlineConnect=0;targetShapes=umlLifeline;portConstraint=eastwest;newEdgeStyle={&quot;edgeStyle&quot;:&quot;elbowEdgeStyle&quot;,&quot;elbow&quot;:&quot;vertical&quot;,&quot;curved&quot;:0,&quot;rounded&quot;:0};" parent="7P23fWCcZTtkgC-bO-uN-45" vertex="1">
          <mxGeometry x="45" y="80" width="10" height="110" as="geometry" />
        </mxCell>
        <mxCell id="7P23fWCcZTtkgC-bO-uN-214" style="edgeStyle=elbowEdgeStyle;rounded=0;orthogonalLoop=1;jettySize=auto;html=1;elbow=vertical;curved=0;" parent="7P23fWCcZTtkgC-bO-uN-45" source="7P23fWCcZTtkgC-bO-uN-46" target="7P23fWCcZTtkgC-bO-uN-46" edge="1">
          <mxGeometry relative="1" as="geometry" />
        </mxCell>
        <mxCell id="7P23fWCcZTtkgC-bO-uN-215" value="2. validarPedido()" style="edgeLabel;html=1;align=center;verticalAlign=middle;resizable=0;points=[];" parent="7P23fWCcZTtkgC-bO-uN-214" connectable="0" vertex="1">
          <mxGeometry x="-0.0373" relative="1" as="geometry">
            <mxPoint as="offset" />
          </mxGeometry>
        </mxCell>
        <mxCell id="7P23fWCcZTtkgC-bO-uN-52" value="UsuÃ¡rio&lt;div&gt;(FuncionÃ¡rio)&lt;/div&gt;" style="shape=umlActor;verticalLabelPosition=bottom;verticalAlign=top;html=1;outlineConnect=0;" parent="1" vertex="1">
          <mxGeometry x="427" y="18" width="30" height="60" as="geometry" />
        </mxCell>
        <mxCell id="7P23fWCcZTtkgC-bO-uN-53" value="" style="endArrow=none;dashed=1;html=1;rounded=0;" parent="1" edge="1">
          <mxGeometry width="50" height="50" relative="1" as="geometry">
            <mxPoint x="442" y="88" as="sourcePoint" />
            <mxPoint x="442" y="240" as="targetPoint" />
          </mxGeometry>
        </mxCell>
        <mxCell id="7P23fWCcZTtkgC-bO-uN-55" value="1. escanearQRCode()" style="html=1;verticalAlign=bottom;endArrow=open;endSize=8;edgeStyle=elbowEdgeStyle;elbow=vertical;curved=0;rounded=0;" parent="1" target="7P23fWCcZTtkgC-bO-uN-46" edge="1">
          <mxGeometry x="0.0025" relative="1" as="geometry">
            <mxPoint x="642" y="128" as="targetPoint" />
            <Array as="points">
              <mxPoint x="552.5" y="128" />
            </Array>
            <mxPoint x="442.5" y="128" as="sourcePoint" />
            <mxPoint as="offset" />
          </mxGeometry>
        </mxCell>
        <mxCell id="7P23fWCcZTtkgC-bO-uN-75" value="" style="endArrow=open;html=1;rounded=0;dashed=1;endFill=0;" parent="1" edge="1">
          <mxGeometry width="50" height="50" relative="1" as="geometry">
            <mxPoint x="665" y="190" as="sourcePoint" />
            <mxPoint x="440" y="190" as="targetPoint" />
            <Array as="points">
              <mxPoint x="490" y="190" />
            </Array>
          </mxGeometry>
        </mxCell>
        <mxCell id="7P23fWCcZTtkgC-bO-uN-76" value="3. InformaÃ§Ãµes do pedido" style="edgeLabel;html=1;align=center;verticalAlign=middle;resizable=0;points=[];" parent="7P23fWCcZTtkgC-bO-uN-75" connectable="0" vertex="1">
          <mxGeometry x="0.0735" y="-2" relative="1" as="geometry">
            <mxPoint x="9" y="-7" as="offset" />
          </mxGeometry>
        </mxCell>
        <mxCell id="7P23fWCcZTtkgC-bO-uN-104" value="Sistema" style="shape=umlLifeline;perimeter=lifelinePerimeter;whiteSpace=wrap;html=1;container=0;dropTarget=0;collapsible=0;recursiveResize=0;outlineConnect=0;portConstraint=eastwest;newEdgeStyle={&quot;edgeStyle&quot;:&quot;elbowEdgeStyle&quot;,&quot;elbow&quot;:&quot;vertical&quot;,&quot;curved&quot;:0,&quot;rounded&quot;:0};" parent="1" vertex="1">
          <mxGeometry x="-557" y="30" width="100" height="400" as="geometry" />
        </mxCell>
        <mxCell id="7P23fWCcZTtkgC-bO-uN-105" value="" style="html=1;points=[];perimeter=orthogonalPerimeter;outlineConnect=0;targetShapes=umlLifeline;portConstraint=eastwest;newEdgeStyle={&quot;edgeStyle&quot;:&quot;elbowEdgeStyle&quot;,&quot;elbow&quot;:&quot;vertical&quot;,&quot;curved&quot;:0,&quot;rounded&quot;:0};" parent="7P23fWCcZTtkgC-bO-uN-104" vertex="1">
          <mxGeometry x="45" y="80" width="10" height="70" as="geometry" />
        </mxCell>
        <mxCell id="7P23fWCcZTtkgC-bO-uN-106" value="" style="html=1;points=[];perimeter=orthogonalPerimeter;outlineConnect=0;targetShapes=umlLifeline;portConstraint=eastwest;newEdgeStyle={&quot;edgeStyle&quot;:&quot;elbowEdgeStyle&quot;,&quot;elbow&quot;:&quot;vertical&quot;,&quot;curved&quot;:0,&quot;rounded&quot;:0};" parent="7P23fWCcZTtkgC-bO-uN-104" vertex="1">
          <mxGeometry x="45" y="210" width="10" height="150" as="geometry" />
        </mxCell>
        <mxCell id="7P23fWCcZTtkgC-bO-uN-203" style="edgeStyle=orthogonalEdgeStyle;rounded=0;orthogonalLoop=1;jettySize=auto;html=1;elbow=vertical;endArrow=open;endFill=0;" parent="7P23fWCcZTtkgC-bO-uN-104" target="7P23fWCcZTtkgC-bO-uN-106" edge="1">
          <mxGeometry relative="1" as="geometry">
            <mxPoint x="55" y="319.9999999999999" as="sourcePoint" />
            <mxPoint x="127" y="350" as="targetPoint" />
            <Array as="points">
              <mxPoint x="97" y="320" />
              <mxPoint x="97" y="350" />
            </Array>
          </mxGeometry>
        </mxCell>
        <mxCell id="7P23fWCcZTtkgC-bO-uN-212" value="7. enviarEmail()" style="edgeLabel;html=1;align=center;verticalAlign=middle;resizable=0;points=[];" parent="7P23fWCcZTtkgC-bO-uN-203" connectable="0" vertex="1">
          <mxGeometry x="-0.0557" relative="1" as="geometry">
            <mxPoint as="offset" />
          </mxGeometry>
        </mxCell>
        <mxCell id="7P23fWCcZTtkgC-bO-uN-110" value="UsuÃ¡rio&lt;div&gt;&lt;br&gt;&lt;/div&gt;" style="shape=umlActor;verticalLabelPosition=bottom;verticalAlign=top;html=1;outlineConnect=0;" parent="1" vertex="1">
          <mxGeometry x="-750" y="30" width="30" height="60" as="geometry" />
        </mxCell>
        <mxCell id="7P23fWCcZTtkgC-bO-uN-111" value="" style="endArrow=none;dashed=1;html=1;rounded=0;" parent="1" edge="1">
          <mxGeometry width="50" height="50" relative="1" as="geometry">
            <mxPoint x="-735" y="100" as="sourcePoint" />
            <mxPoint x="-737" y="430" as="targetPoint" />
          </mxGeometry>
        </mxCell>
        <mxCell id="7P23fWCcZTtkgC-bO-uN-112" value="1. checkoutCarrinho()" style="html=1;verticalAlign=bottom;endArrow=open;endSize=8;edgeStyle=elbowEdgeStyle;elbow=vertical;curved=0;rounded=0;" parent="1" target="7P23fWCcZTtkgC-bO-uN-105" edge="1">
          <mxGeometry x="0.0067" relative="1" as="geometry">
            <mxPoint x="-535" y="140" as="targetPoint" />
            <Array as="points">
              <mxPoint x="-624.5" y="140" />
            </Array>
            <mxPoint x="-734.5" y="140" as="sourcePoint" />
            <mxPoint as="offset" />
          </mxGeometry>
        </mxCell>
        <mxCell id="7P23fWCcZTtkgC-bO-uN-113" value="3. realizarPagamento()" style="html=1;verticalAlign=bottom;endArrow=open;endSize=8;edgeStyle=elbowEdgeStyle;elbow=vertical;curved=0;rounded=0;" parent="1" edge="1">
          <mxGeometry x="0.0037" relative="1" as="geometry">
            <mxPoint x="-512" y="247" as="targetPoint" />
            <Array as="points">
              <mxPoint x="-624.5" y="247" />
            </Array>
            <mxPoint x="-734.5" y="247" as="sourcePoint" />
            <mxPoint as="offset" />
          </mxGeometry>
        </mxCell>
        <mxCell id="7P23fWCcZTtkgC-bO-uN-114" value="6. QR code do pedido" style="html=1;verticalAlign=bottom;endArrow=open;dashed=1;endSize=8;edgeStyle=elbowEdgeStyle;elbow=vertical;curved=0;rounded=0;" parent="1" edge="1">
          <mxGeometry x="-0.0052" relative="1" as="geometry">
            <mxPoint x="-734.5" y="330" as="targetPoint" />
            <Array as="points">
              <mxPoint x="-614.5" y="330" />
            </Array>
            <mxPoint x="-512" y="330" as="sourcePoint" />
            <mxPoint as="offset" />
          </mxGeometry>
        </mxCell>
        <mxCell id="7P23fWCcZTtkgC-bO-uN-125" value="" style="endArrow=open;html=1;rounded=0;dashed=1;endFill=0;" parent="1" edge="1">
          <mxGeometry width="50" height="50" relative="1" as="geometry">
            <mxPoint x="-512" y="165" as="sourcePoint" />
            <mxPoint x="-737" y="165" as="targetPoint" />
            <Array as="points">
              <mxPoint x="-687" y="165" />
            </Array>
          </mxGeometry>
        </mxCell>
        <mxCell id="7P23fWCcZTtkgC-bO-uN-126" value="2. Mensagem de confirmaÃ§Ã£o" style="edgeLabel;html=1;align=center;verticalAlign=middle;resizable=0;points=[];" parent="7P23fWCcZTtkgC-bO-uN-125" connectable="0" vertex="1">
          <mxGeometry x="0.0735" y="-2" relative="1" as="geometry">
            <mxPoint x="9" y="-7" as="offset" />
          </mxGeometry>
        </mxCell>
        <mxCell id="7P23fWCcZTtkgC-bO-uN-169" value="" style="swimlane;startSize=0;" parent="1" vertex="1">
          <mxGeometry x="10" y="180" width="310" height="110" as="geometry" />
        </mxCell>
        <mxCell id="7P23fWCcZTtkgC-bO-uN-170" value="loop" style="text;html=1;align=center;verticalAlign=middle;resizable=0;points=[];autosize=1;perimeterSpacing=1;fillColor=#f5f5f5;fontColor=#333333;strokeColor=#666666;" parent="7P23fWCcZTtkgC-bO-uN-169" vertex="1">
          <mxGeometry width="50" height="30" as="geometry" />
        </mxCell>
        <mxCell id="7P23fWCcZTtkgC-bO-uN-171" value="[para cada produto a ser adicionado]" style="text;html=1;align=center;verticalAlign=middle;resizable=0;points=[];autosize=1;strokeColor=none;fillColor=none;" parent="7P23fWCcZTtkgC-bO-uN-169" vertex="1">
          <mxGeometry x="45" width="220" height="30" as="geometry" />
        </mxCell>
        <mxCell id="7P23fWCcZTtkgC-bO-uN-172" value="Gateway de Pagamento" style="shape=umlLifeline;perimeter=lifelinePerimeter;whiteSpace=wrap;html=1;container=0;dropTarget=0;collapsible=0;recursiveResize=0;outlineConnect=0;portConstraint=eastwest;newEdgeStyle={&quot;edgeStyle&quot;:&quot;elbowEdgeStyle&quot;,&quot;elbow&quot;:&quot;vertical&quot;,&quot;curved&quot;:0,&quot;rounded&quot;:0};" parent="1" vertex="1">
          <mxGeometry x="-340" y="30" width="100" height="390" as="geometry" />
        </mxCell>
        <mxCell id="7P23fWCcZTtkgC-bO-uN-174" value="" style="html=1;points=[];perimeter=orthogonalPerimeter;outlineConnect=0;targetShapes=umlLifeline;portConstraint=eastwest;newEdgeStyle={&quot;edgeStyle&quot;:&quot;elbowEdgeStyle&quot;,&quot;elbow&quot;:&quot;vertical&quot;,&quot;curved&quot;:0,&quot;rounded&quot;:0};" parent="7P23fWCcZTtkgC-bO-uN-172" vertex="1">
          <mxGeometry x="45" y="210" width="10" height="110" as="geometry" />
        </mxCell>
        <mxCell id="7P23fWCcZTtkgC-bO-uN-177" value="4. solicitarConfirmacaoPagamento()" style="html=1;verticalAlign=bottom;endArrow=open;endSize=8;edgeStyle=elbowEdgeStyle;elbow=vertical;curved=0;rounded=0;" parent="1" edge="1">
          <mxGeometry x="0.0037" relative="1" as="geometry">
            <mxPoint x="-295" y="269.9999999999999" as="targetPoint" />
            <Array as="points">
              <mxPoint x="-400" y="270" />
            </Array>
            <mxPoint x="-500" y="270" as="sourcePoint" />
            <mxPoint as="offset" />
          </mxGeometry>
        </mxCell>
        <mxCell id="7P23fWCcZTtkgC-bO-uN-178" value="5. ConfirmaÃ§Ã£o da transaÃ§Ã£o" style="html=1;verticalAlign=bottom;endArrow=open;dashed=1;endSize=8;edgeStyle=elbowEdgeStyle;elbow=vertical;curved=0;rounded=0;" parent="1" edge="1">
          <mxGeometry relative="1" as="geometry">
            <mxPoint x="-500" y="310" as="targetPoint" />
            <Array as="points">
              <mxPoint x="-390" y="310.44" />
            </Array>
            <mxPoint x="-295" y="310.44000000000005" as="sourcePoint" />
          </mxGeometry>
        </mxCell>
        <mxCell id="7P23fWCcZTtkgC-bO-uN-179" value="Sistema" style="shape=umlLifeline;perimeter=lifelinePerimeter;whiteSpace=wrap;html=1;container=0;dropTarget=0;collapsible=0;recursiveResize=0;outlineConnect=0;portConstraint=eastwest;newEdgeStyle={&quot;edgeStyle&quot;:&quot;elbowEdgeStyle&quot;,&quot;elbow&quot;:&quot;vertical&quot;,&quot;curved&quot;:0,&quot;rounded&quot;:0};" parent="1" vertex="1">
          <mxGeometry x="-540" y="520" width="100" height="540" as="geometry" />
        </mxCell>
        <mxCell id="7P23fWCcZTtkgC-bO-uN-180" value="" style="html=1;points=[];perimeter=orthogonalPerimeter;outlineConnect=0;targetShapes=umlLifeline;portConstraint=eastwest;newEdgeStyle={&quot;edgeStyle&quot;:&quot;elbowEdgeStyle&quot;,&quot;elbow&quot;:&quot;vertical&quot;,&quot;curved&quot;:0,&quot;rounded&quot;:0};" parent="7P23fWCcZTtkgC-bO-uN-179" vertex="1">
          <mxGeometry x="45" y="80" width="10" height="70" as="geometry" />
        </mxCell>
        <mxCell id="7P23fWCcZTtkgC-bO-uN-181" value="" style="html=1;points=[];perimeter=orthogonalPerimeter;outlineConnect=0;targetShapes=umlLifeline;portConstraint=eastwest;newEdgeStyle={&quot;edgeStyle&quot;:&quot;elbowEdgeStyle&quot;,&quot;elbow&quot;:&quot;vertical&quot;,&quot;curved&quot;:0,&quot;rounded&quot;:0};" parent="7P23fWCcZTtkgC-bO-uN-179" vertex="1">
          <mxGeometry x="45" y="210" width="10" height="50" as="geometry" />
        </mxCell>
        <mxCell id="7P23fWCcZTtkgC-bO-uN-182" value="6. Produtos no carrinho" style="html=1;verticalAlign=bottom;endArrow=open;dashed=1;endSize=8;edgeStyle=elbowEdgeStyle;elbow=vertical;curved=0;rounded=0;" parent="1" edge="1">
          <mxGeometry relative="1" as="geometry">
            <mxPoint x="-694.5" y="850" as="targetPoint" />
            <Array as="points">
              <mxPoint x="-574.5" y="850" />
            </Array>
            <mxPoint x="-495" y="850" as="sourcePoint" />
          </mxGeometry>
        </mxCell>
        <mxCell id="7P23fWCcZTtkgC-bO-uN-183" value="5. mostrarCarrinho()" style="html=1;verticalAlign=bottom;endArrow=open;endSize=8;edgeStyle=elbowEdgeStyle;elbow=vertical;curved=0;rounded=0;" parent="1" edge="1">
          <mxGeometry relative="1" as="geometry">
            <mxPoint x="-495" y="820" as="targetPoint" />
            <Array as="points">
              <mxPoint x="-584.5" y="820" />
            </Array>
            <mxPoint x="-694.5" y="820" as="sourcePoint" />
          </mxGeometry>
        </mxCell>
        <mxCell id="7P23fWCcZTtkgC-bO-uN-184" value="UsuÃ¡rio&lt;div&gt;&lt;br&gt;&lt;/div&gt;" style="shape=umlActor;verticalLabelPosition=bottom;verticalAlign=top;html=1;outlineConnect=0;" parent="1" vertex="1">
          <mxGeometry x="-710" y="520" width="30" height="60" as="geometry" />
        </mxCell>
        <mxCell id="7P23fWCcZTtkgC-bO-uN-185" value="" style="endArrow=none;dashed=1;html=1;rounded=0;" parent="1" edge="1">
          <mxGeometry width="50" height="50" relative="1" as="geometry">
            <mxPoint x="-695" y="590" as="sourcePoint" />
            <mxPoint x="-695" y="1060" as="targetPoint" />
          </mxGeometry>
        </mxCell>
        <mxCell id="7P23fWCcZTtkgC-bO-uN-186" value="" style="html=1;points=[];perimeter=orthogonalPerimeter;outlineConnect=0;targetShapes=umlLifeline;portConstraint=eastwest;newEdgeStyle={&quot;edgeStyle&quot;:&quot;elbowEdgeStyle&quot;,&quot;elbow&quot;:&quot;vertical&quot;,&quot;curved&quot;:0,&quot;rounded&quot;:0};" parent="1" vertex="1">
          <mxGeometry x="-495" y="800" width="10" height="70" as="geometry" />
        </mxCell>
        <mxCell id="7P23fWCcZTtkgC-bO-uN-187" value="1. listProdutos()" style="html=1;verticalAlign=bottom;endArrow=open;endSize=8;edgeStyle=elbowEdgeStyle;elbow=vertical;curved=0;rounded=0;" parent="1" edge="1">
          <mxGeometry x="0.0025" relative="1" as="geometry">
            <mxPoint x="-495" y="630" as="targetPoint" />
            <Array as="points">
              <mxPoint x="-584.5" y="630" />
            </Array>
            <mxPoint x="-694.5" y="630" as="sourcePoint" />
            <mxPoint as="offset" />
          </mxGeometry>
        </mxCell>
        <mxCell id="7P23fWCcZTtkgC-bO-uN-188" value="2. Lista de produtos" style="html=1;verticalAlign=bottom;endArrow=open;edgeStyle=elbowEdgeStyle;elbow=vertical;curved=0;rounded=0;dashed=1;endFill=0;" parent="1" edge="1">
          <mxGeometry relative="1" as="geometry">
            <mxPoint x="-495" y="660.2" as="sourcePoint" />
            <Array as="points">
              <mxPoint x="-700" y="660" />
            </Array>
            <mxPoint x="-690" y="660" as="targetPoint" />
          </mxGeometry>
        </mxCell>
        <mxCell id="7P23fWCcZTtkgC-bO-uN-189" value="3. adicionar ao carrinho(id_produto)" style="html=1;verticalAlign=bottom;endArrow=open;endSize=8;edgeStyle=elbowEdgeStyle;elbow=vertical;curved=0;rounded=0;" parent="1" edge="1">
          <mxGeometry relative="1" as="geometry">
            <mxPoint x="-495" y="740" as="targetPoint" />
            <Array as="points">
              <mxPoint x="-584.5" y="740" />
            </Array>
            <mxPoint x="-694.5" y="740" as="sourcePoint" />
          </mxGeometry>
        </mxCell>
        <mxCell id="7P23fWCcZTtkgC-bO-uN-190" value="4. Mensagem de sucesso" style="html=1;verticalAlign=bottom;endArrow=open;dashed=1;endSize=8;edgeStyle=elbowEdgeStyle;elbow=vertical;curved=0;rounded=0;" parent="1" edge="1">
          <mxGeometry relative="1" as="geometry">
            <mxPoint x="-694.5" y="770" as="targetPoint" />
            <Array as="points">
              <mxPoint x="-574.5" y="770" />
            </Array>
            <mxPoint x="-495" y="770" as="sourcePoint" />
          </mxGeometry>
        </mxCell>
        <mxCell id="7P23fWCcZTtkgC-bO-uN-191" value="" style="swimlane;startSize=0;" parent="1" vertex="1">
          <mxGeometry x="-750" y="872" width="310" height="90" as="geometry" />
        </mxCell>
        <mxCell id="7P23fWCcZTtkgC-bO-uN-192" value="opt" style="text;html=1;align=center;verticalAlign=middle;resizable=0;points=[];autosize=1;perimeterSpacing=1;fillColor=#f5f5f5;fontColor=#333333;strokeColor=#666666;" parent="7P23fWCcZTtkgC-bO-uN-191" vertex="1">
          <mxGeometry x="5" width="40" height="30" as="geometry" />
        </mxCell>
        <mxCell id="7P23fWCcZTtkgC-bO-uN-193" value="" style="html=1;points=[];perimeter=orthogonalPerimeter;outlineConnect=0;targetShapes=umlLifeline;portConstraint=eastwest;newEdgeStyle={&quot;edgeStyle&quot;:&quot;elbowEdgeStyle&quot;,&quot;elbow&quot;:&quot;vertical&quot;,&quot;curved&quot;:0,&quot;rounded&quot;:0};" parent="7P23fWCcZTtkgC-bO-uN-191" vertex="1">
          <mxGeometry x="255" y="20" width="10" height="60" as="geometry" />
        </mxCell>
        <mxCell id="7P23fWCcZTtkgC-bO-uN-194" value="7. removerProduto(id_produto)" style="html=1;verticalAlign=bottom;endArrow=open;endSize=8;edgeStyle=elbowEdgeStyle;elbow=vertical;curved=0;rounded=0;" parent="7P23fWCcZTtkgC-bO-uN-191" edge="1">
          <mxGeometry relative="1" as="geometry">
            <mxPoint x="255" y="38" as="targetPoint" />
            <Array as="points">
              <mxPoint x="165.5" y="38" />
            </Array>
            <mxPoint x="55.5" y="38" as="sourcePoint" />
          </mxGeometry>
        </mxCell>
        <mxCell id="7P23fWCcZTtkgC-bO-uN-195" value="6. Mensagem de sucesso" style="html=1;verticalAlign=bottom;endArrow=open;dashed=1;endSize=8;edgeStyle=elbowEdgeStyle;elbow=vertical;curved=0;rounded=0;" parent="7P23fWCcZTtkgC-bO-uN-191" edge="1">
          <mxGeometry relative="1" as="geometry">
            <mxPoint x="55.5" y="68" as="targetPoint" />
            <Array as="points">
              <mxPoint x="175.5" y="68" />
            </Array>
            <mxPoint x="255" y="68" as="sourcePoint" />
          </mxGeometry>
        </mxCell>
        <mxCell id="7P23fWCcZTtkgC-bO-uN-196" value="" style="swimlane;startSize=0;" parent="1" vertex="1">
          <mxGeometry x="-750" y="680" width="310" height="110" as="geometry" />
        </mxCell>
        <mxCell id="7P23fWCcZTtkgC-bO-uN-197" value="loop" style="text;html=1;align=center;verticalAlign=middle;resizable=0;points=[];autosize=1;perimeterSpacing=1;fillColor=#f5f5f5;fontColor=#333333;strokeColor=#666666;" parent="7P23fWCcZTtkgC-bO-uN-196" vertex="1">
          <mxGeometry width="50" height="30" as="geometry" />
        </mxCell>
        <mxCell id="7P23fWCcZTtkgC-bO-uN-198" value="[para cada produto a ser adicionado]" style="text;html=1;align=center;verticalAlign=middle;resizable=0;points=[];autosize=1;strokeColor=none;fillColor=none;" parent="7P23fWCcZTtkgC-bO-uN-196" vertex="1">
          <mxGeometry x="45" width="220" height="30" as="geometry" />
        </mxCell>
        <mxCell id="7P23fWCcZTtkgC-bO-uN-213" value="8. Email com informaÃ§Ãµes do pedido" style="html=1;verticalAlign=bottom;endArrow=open;dashed=1;endSize=8;edgeStyle=elbowEdgeStyle;elbow=vertical;curved=0;rounded=0;" parent="1" edge="1">
          <mxGeometry x="-0.0052" relative="1" as="geometry">
            <mxPoint x="-736" y="386" as="targetPoint" />
            <Array as="points">
              <mxPoint x="-616" y="386" />
            </Array>
            <mxPoint x="-513.5" y="386" as="sourcePoint" />
            <mxPoint as="offset" />
          </mxGeometry>
        </mxCell>
      </root>
    </mxGraphModel>
  </diagram>
</mxfile>
